<?xml version="1.0" encoding="UTF-8"?>
<svg width="906px" height="200px" viewBox="0 0 906 200" version="1.1" xmlns="http://www.w3.org/2000/svg" xmlns:xlink="http://www.w3.org/1999/xlink">
    <!-- Generator: Sketch 55.2 (78181) - https://sketchapp.com -->
    <title>Group 3</title>
    <desc>Created with Sketch.</desc>
    <defs>
        <linearGradient x1="33.5084027%" y1="112.091105%" x2="44.9820798%" y2="71.8286237%" id="linearGradient-1">
            <stop stop-color="#4E197F" offset="0%"></stop>
            <stop stop-color="#FF0056" offset="100%"></stop>
        </linearGradient>
        <linearGradient x1="23.7234596%" y1="94.4410958%" x2="46.5549935%" y2="40.9376396%" id="linearGradient-2">
            <stop stop-color="#4E197F" offset="0%"></stop>
            <stop stop-color="#FF0056" offset="100%"></stop>
        </linearGradient>
        <linearGradient x1="39.1698572%" y1="76.4953239%" x2="75.2919993%" y2="23.5046761%" id="linearGradient-3">
            <stop stop-color="#2E0059" offset="0%"></stop>
            <stop stop-color="#FF0056" offset="100%"></stop>
        </linearGradient>
    </defs>
    <g id="Page-1" stroke="none" stroke-width="1" fill="none" fill-rule="evenodd">
        <g id="FINAL-LOGO" transform="translate(-93.000000, -88.000000)" fill-rule="nonzero">
            <g id="Group-3" transform="translate(93.000000, 88.000000)">
                <g id="Group-2" transform="translate(248.000000, 34.000000)" fill="#1E1E1E">
                    <path d="M108,116.177778 C102.112808,121.2741 95.5192515,125.185172 88.2191333,127.911111 C80.919015,130.637051 73.3540866,132 65.524121,132 C59.519185,132 53.7351055,131.214823 48.1717089,129.644444 C42.6083123,128.074066 37.3982254,125.851866 32.5412919,122.977778 C27.6843584,120.103689 23.2543127,116.651872 19.2510221,112.622222 C15.2477314,108.592572 11.8184934,104.133358 8.96320523,99.2444444 C6.10791704,94.3555311 3.9002531,89.1111391 2.34014718,83.5111111 C0.780041259,77.9110831 5.68434189e-14,72.0889191 5.68434189e-14,66.0444444 C5.68434189e-14,59.9999698 0.780041259,54.1629911 2.34014718,48.5333333 C3.9002531,42.9036756 6.10791704,37.6444689 8.96320523,32.7555556 C11.8184934,27.8666422 15.2477314,23.4074276 19.2510221,19.3777778 C23.2543127,15.348128 27.6843584,11.8963107 32.5412919,9.02222222 C37.3982254,6.14813378 42.6083123,3.92593378 48.1717089,2.35555556 C53.7351055,0.785177333 59.519185,0 65.524121,0 C73.3540866,0 80.919015,1.34813467 88.2191333,4.04444444 C95.5192515,6.74075422 102.112808,10.6666409 108,15.8222222 L94.577269,38.0444444 C90.868338,34.0147947 86.4824456,30.9185293 81.4194603,28.7555556 C76.3564751,26.5925818 71.0580816,25.5111111 65.524121,25.5111111 C59.9312885,25.5111111 54.6917661,26.5777671 49.8053966,28.7111111 C44.9190271,30.8444551 40.6508768,33.7333151 37.0008177,37.3777778 C33.3507585,41.0222404 30.4660776,45.3184938 28.3466885,50.2666667 C26.2272993,55.2148396 25.1676206,60.4740462 25.1676206,66.0444444 C25.1676206,71.6148427 26.2272993,76.84442 28.3466885,81.7333333 C30.4660776,86.6222467 33.3507585,90.9036853 37.0008177,94.5777778 C40.6508768,98.2518702 44.9190271,101.155545 49.8053966,103.288889 C54.6917661,105.422233 59.9312885,106.488889 65.524121,106.488889 C71.0580816,106.488889 76.3564751,105.407418 81.4194603,103.244444 C86.4824456,101.081471 90.868338,97.9852053 94.577269,93.9555556 L108,116.177778 Z M263,65.9554956 C263,72.008122 262.21972,77.8381378 260.659137,83.4457181 C259.098554,89.0532984 256.904937,94.3047631 254.07822,99.2002697 C251.251503,104.095776 247.835938,108.561005 243.831423,112.596089 C239.826907,116.631173 235.410229,120.087646 230.581254,122.96561 C225.75228,125.843575 220.540599,128.068772 214.946055,129.641268 C209.351512,131.213764 203.55094,132 197.544167,132 C191.537394,132 185.751545,131.213764 180.186446,129.641268 C174.621348,128.068772 169.409667,125.843575 164.551247,122.96561 C159.692828,120.087646 155.261427,116.631173 151.256912,112.596089 C147.252396,108.561005 143.822109,104.095776 140.965947,99.2002697 C138.109786,94.3047631 135.901446,89.0532984 134.340863,83.4457181 C132.78028,77.8381378 132,72.008122 132,65.9554956 C132,59.9028693 132.78028,54.0580187 134.340863,48.4207687 C135.901446,42.7835187 138.109786,37.532054 140.965947,32.6662171 C143.822109,27.8003803 147.252396,23.3499865 151.256912,19.3149022 C155.261427,15.279818 159.692828,11.8381801 164.551247,8.98988537 C169.409667,6.14159061 174.621348,3.93122836 180.186446,2.3587323 C185.751545,0.786236237 191.537394,0 197.544167,0 C203.55094,0 209.351512,0.786236237 214.946055,2.3587323 C220.540599,3.93122836 225.75228,6.14159061 230.581254,8.98988537 C235.410229,11.8381801 239.826907,15.279818 243.831423,19.3149022 C247.835938,23.3499865 251.251503,27.8003803 254.07822,32.6662171 C256.904937,37.532054 259.098554,42.7835187 260.659137,48.4207687 C262.21972,54.0580187 263,59.9028693 263,65.9554956 Z M238.26348,66.1392318 C238.26348,60.5608389 237.202895,55.2940842 235.081694,50.3388096 C232.960494,45.3835351 230.088078,41.0811158 226.46436,37.4314225 C222.840642,33.7817293 218.568843,30.8887232 213.648836,28.7523174 C208.728829,26.6159117 203.499558,25.5477248 197.960868,25.5477248 C192.363255,25.5477248 187.119254,26.6159117 182.228708,28.7523174 C177.338161,30.8887232 173.066363,33.7817293 169.413184,37.4314225 C165.760005,41.0811158 162.872858,45.3835351 160.751658,50.3388096 C158.630457,55.2940842 157.569872,60.5608389 157.569872,66.1392318 C157.569872,71.7176246 158.630457,76.9547075 160.751658,81.8506374 C162.872858,86.7465673 165.760005,91.0341508 169.413184,94.7135163 C173.066363,98.3928818 177.338161,101.300724 182.228708,103.43713 C187.119254,105.573535 192.363255,106.641722 197.960868,106.641722 C203.499558,106.641722 208.728829,105.573535 213.648836,103.43713 C218.568843,101.300724 222.840642,98.3928818 226.46436,94.7135163 C230.088078,91.0341508 232.960494,86.7465673 235.081694,81.8506374 C237.202895,76.9547075 238.26348,71.7176246 238.26348,66.1392318 Z M389,66 C389,72.0753442 388.245438,77.920474 386.736292,83.5355649 C385.227147,89.1506557 383.081824,94.3974651 380.300261,99.2761506 C377.518698,104.154836 374.204545,108.603885 370.357702,112.623431 C366.51086,116.642977 362.220215,120.094825 357.48564,122.979079 C352.751064,125.863334 347.676267,128.087858 342.261097,129.65272 C336.845926,131.217581 331.208907,132 325.349869,132 L287,132 L287,0 L325.349869,0 C331.208907,0 336.845926,0.782418954 342.261097,2.34728033 C347.676267,3.91214172 352.751064,6.13666619 357.48564,9.0209205 C362.220215,11.9051748 366.51086,15.3570231 370.357702,19.376569 C374.204545,23.3961149 377.518698,27.8451639 380.300261,32.7238494 C383.081824,37.6025349 385.227147,42.8493443 386.736292,48.4644351 C388.245438,54.079526 389,59.9246558 389,66 Z M363.643414,66.2770789 C363.643414,60.9954091 362.656481,56.0402089 360.682586,51.4113297 C358.708691,46.7824505 355.998308,42.7322419 352.551357,39.2605825 C349.104406,35.7889231 345.068293,33.0442763 340.442897,31.0265597 C335.817501,29.0088432 330.882837,28 325.638758,28 L313,28 L313,104.554158 L325.638758,104.554158 C330.882837,104.554158 335.817501,103.560151 340.442897,101.572106 C345.068293,99.5840621 349.104406,96.8542512 352.551357,93.3825918 C355.998308,89.9109324 358.708691,85.8458879 360.682586,81.1873364 C362.656481,76.5287849 363.643414,71.5587488 363.643414,66.2770789 Z M503,132 L413,132 L413,0 L503,0 L503,26.41841 L439.276704,26.41841 L439.276704,52.8368201 L482.399797,52.8368201 L482.399797,79.2552301 L439.276704,79.2552301 L439.276704,105.58159 L503,105.58159 L503,132 Z" id="CODE"></path>
                    <path d="M658,50.8311864 C658,59.0644479 657.185376,67.1036896 655.556104,74.9491525 C653.926832,82.7946155 651.571829,90.2074227 648.491023,97.1877966 C645.410218,104.16817 641.648137,110.611496 637.204668,116.517966 C632.761199,122.424436 627.725342,127.585063 622.096948,132 L587.704668,132 C591.31869,129.673209 594.814166,127.07798 598.191203,124.214237 C601.56824,121.350494 604.782301,118.277983 607.833483,114.99661 C610.884665,111.715238 613.713631,108.254933 616.320467,104.615593 C618.927302,100.976253 621.237871,97.2176465 623.252244,93.339661 C620.645409,95.0698392 617.860877,96.5464346 614.898564,97.7694915 C611.936251,98.9925485 608.885114,99.6040678 605.745063,99.6040678 C598.51702,99.6040678 592.029652,98.3959443 586.282765,95.979661 C580.535878,93.5633777 575.633324,90.192564 571.574955,85.8671186 C567.516587,81.5416733 564.406205,76.395962 562.243716,70.4298305 C560.081228,64.463699 559,57.930883 559,50.8311864 C559,43.9104739 560.229341,37.3627427 562.688061,31.1877966 C565.146781,25.0128505 568.538578,19.6135824 572.863555,14.9898305 C577.188531,10.3660786 582.313256,6.71187783 588.237882,4.02711864 C594.162507,1.34235946 600.59063,0 607.522442,0 C614.5135,0 621.074924,1.34235946 627.206912,4.02711864 C633.3389,6.71187783 638.685794,10.3660786 643.247756,14.9898305 C647.809718,19.6135824 651.408874,25.0128505 654.045332,31.1877966 C656.681791,37.3627427 658,43.9104739 658,50.8311864 Z M630.197675,50.5688361 C630.197675,47.3261365 629.640878,44.2014002 628.527268,41.1945334 C627.413658,38.1876666 625.845835,35.5345886 623.823753,33.2352199 C621.801671,30.9358511 619.384001,29.1081752 616.57067,27.7521372 C613.757338,26.3960992 610.650998,25.7180904 607.251556,25.7180904 C603.793503,25.7180904 600.672511,26.3813599 597.888485,27.7079188 C595.104459,29.0344777 592.716094,30.8179357 590.723318,33.0583462 C588.730541,35.2987568 587.206676,37.9223562 586.151677,40.929223 C585.096678,43.9360898 584.569186,47.149262 584.569186,50.5688361 C584.569186,53.9294519 585.096678,57.0984062 586.151677,60.0757939 C587.206676,63.0531816 588.730541,65.6620417 590.723318,67.9024522 C592.716094,70.1428628 595.104459,71.9115815 597.888485,73.2086613 C600.672511,74.5057411 603.793503,75.1542712 607.251556,75.1542712 C610.709609,75.1542712 613.859907,74.5057411 616.702544,73.2086613 C619.545181,71.9115815 621.962851,70.1428628 623.955627,67.9024522 C625.948404,65.6620417 627.486921,63.0531816 628.571226,60.0757939 C629.655531,57.0984062 630.197675,53.9294519 630.197675,50.5688361 Z" id="9"></path>
                </g>
                <g id="Group">
                    <path d="M48.8361106,14.0620279 L85.413339,57.6530713 C83.4366429,61.913296 82.3333333,66.6611354 82.3333333,71.6666667 C82.3333333,90.0761583 97.257175,105 115.666667,105 C134.076158,105 149,90.0761583 149,71.6666667 C149,53.257175 134.076158,38.3333333 115.666667,38.3333333 C106.727974,38.3333333 98.6110476,41.8517319 92.6252318,47.5791844 L59.7686929,8.42228616 C72.0788511,3.00646832 85.6883264,-9.09494702e-13 100,-9.09494702e-13 C155.228475,-9.09494702e-13 200,44.771525 200,100 C200,142.153004 173.918484,178.214343 137.012658,192.92681 L113.781153,165.24058 C138.423274,160.061276 158.05579,141.273204 164.452635,117.102431 C152.282106,130.164591 134.928342,138.333333 115.666667,138.333333 C78.8476833,138.333333 49,108.48565 49,71.6666667 C49,65.7545406 49.7695811,60.0221599 51.2140318,54.564236 C40.1204099,66.4705968 33.3333333,82.4426951 33.3333333,100 C33.3333333,136.588695 62.8088138,166.293023 99.3099599,166.663169 L124.70307,196.925499 C116.802058,198.933089 108.525624,200 100,200 C44.771525,200 0,155.228475 0,100 C0,63.4683806 19.5890617,31.5120316 48.8361106,14.0620279 Z" id="Combined-Shape" fill="url(#linearGradient-1)"></path>
                    <path d="M48.5735175,14.0338892 L85.2142858,57.5377054 C83.2341559,61.7894052 82.1289297,66.5277441 82.1289297,71.5232591 C82.1289297,82.225704 87.2018336,91.7477301 95.0827651,97.8329131 L64.8462686,114.860505 C54.8055773,103.218206 48.7376917,88.0767035 48.7376917,71.5232591 C48.7376917,65.6229634 49.5086097,59.9020534 50.9555696,54.455051 C39.8426765,66.3375867 33.0438098,82.2777243 33.0438098,99.7998964 C33.0438098,101.26319 33.0912257,102.715451 33.1846102,104.155236 L0.111816399,90.1814386 C3.22193336,57.7794776 21.8830412,29.8991098 48.5735175,14.0338892 Z M59.5250913,8.40543286 C71.856634,3.00045227 85.4897509,-9.09494702e-13 99.8262859,-9.09494702e-13 C155.150701,-9.09494702e-13 200,44.6819356 200,99.7998964 C200,127.839678 188.393036,153.178625 169.704715,171.308017 L141.838347,151.521302 C152.680363,142.76935 160.715969,130.702124 164.390884,116.868105 C152.199214,129.904127 134.815304,138.056523 115.520168,138.056523 C114.547564,138.056523 113.579817,138.03581 112.617345,137.9948 L109.891965,104.319342 C111.721662,104.62876 113.602027,104.789891 115.520168,104.789891 C133.961639,104.789891 148.911406,89.8959127 148.911406,71.5232591 C148.911406,53.1506055 133.961639,38.256627 115.520168,38.256627 C106.565947,38.256627 98.4349207,41.7679851 92.4387066,47.4839768 L59.5250913,8.40543286 Z" id="Combined-Shape" fill="url(#linearGradient-2)"></path>
                    <path d="M48.6730743,14.0662521 L85.2897528,57.6703905 C83.3109247,61.9318949 82.2064252,66.6811607 82.2064252,71.6881956 C82.2064252,74.8227325 82.6392888,77.8562472 83.4485445,80.7323123 L52.5714381,93.7374482 C50.1524059,86.8355447 48.8371405,79.4153491 48.8371405,71.6881956 C48.8371405,65.7742935 49.6075517,60.0401908 51.0535603,54.5806273 C43.4446749,62.7406057 37.8595367,72.8096848 35.0967861,83.9898448 L7.56231502,61.3046445 C15.8855698,41.5147356 30.3953819,24.9630058 48.6730743,14.0662521 Z M59.6174478,8.42481624 C71.9408831,3.00737147 85.5650367,-9.09494702e-13 99.892146,-9.09494702e-13 C155.180187,-9.09494702e-13 200,44.7849745 200,100.03004 C200,114.272792 197.020998,127.820301 191.65163,140.084388 L153.256043,140.084387 C158.349689,133.31949 162.184927,125.554834 164.414296,117.137609 C156.745536,125.361796 147.021054,131.646716 136.058498,135.175357 L130.97459,101.2767 C141.653465,95.7163361 148.944994,84.553118 148.944994,71.6881956 C148.944994,53.2731736 134.005057,38.3448488 115.57571,38.3448488 C106.627377,38.3448488 98.5016956,41.8643043 92.5094238,47.5934774 L59.6174478,8.42481624 Z" id="Combined-Shape" fill="url(#linearGradient-3)"></path>
                </g>
            </g>
        </g>
    </g>
</svg>